<svg xmlns="http://www.w3.org/2000/svg" viewBox="0 0 64 64" role="img" aria-label="KKM spark icon">
  <defs>
    <linearGradient id="kkmSparkBg" x1="0%" y1="0%" x2="100%" y2="100%">
      <stop offset="0%" stop-color="#7c3aed" />
      <stop offset="100%" stop-color="#ec4899" />
    </linearGradient>
  </defs>
  <rect x="2" y="2" width="60" height="60" rx="16" fill="url(#kkmSparkBg)" />
  <path
    d="M32 13l3.8 9.4L45 26l-9.2 3.6L32 39l-3.8-9.4L19 26l9.2-3.6L32 13zm-12.5 27l1.8 4.4 4.4 1.8-4.4 1.8-1.8 4.4-1.8-4.4-4.4-1.8 4.4-1.8 1.8-4.4zm25 0l1.8 4.4 4.4 1.8-4.4 1.8-1.8 4.4-1.8-4.4-4.4-1.8 4.4-1.8 1.8-4.4z"
    fill="#fff"
    opacity="0.95"
  />
</svg>
